<?xml version="1.0" standalone="no"?>
<!DOCTYPE svg PUBLIC "-//W3C//DTD SVG 20010904//EN"
 "http://www.w3.org/TR/2001/REC-SVG-20010904/DTD/svg10.dtd">
<svg version="1.0" xmlns="http://www.w3.org/2000/svg"
 width="512.000000pt" height="512.000000pt" viewBox="0 0 512.000000 512.000000"
 preserveAspectRatio="xMidYMid meet">

<g transform="translate(0.000000,512.000000) scale(0.100000,-0.100000)"
fill="#000000" stroke="none">
<path d="M70 2560 l0 -2560 1975 0 1975 0 0 1499 0 1498 474 474 c349 349 482
489 505 529 42 76 56 147 41 213 -12 50 -24 63 -364 404 -340 340 -353 351
-401 361 -31 7 -68 7 -97 2 -103 -20 -129 -41 -467 -372 -179 -175 -328 -317
-331 -316 -4 2 -186 189 -404 416 l-398 412 -1254 0 -1254 0 0 -2560z m2260
1510 l0 -630 102 0 103 0 -120 -120 -120 -120 -682 0 -683 0 0 -100 0 -100
575 0 c316 0 575 -3 575 -7 0 -4 -40 -48 -90 -98 l-89 -90 -94 -230 -94 -230
-391 -3 -392 -2 0 -105 0 -105 345 0 c190 0 345 -3 345 -7 0 -5 -58 -150 -129
-323 l-129 -315 -216 -3 -216 -2 0 -105 0 -105 1115 0 1115 0 0 105 0 105
-596 2 -595 3 446 181 446 180 370 370 369 369 0 -1083 0 -1082 -1555 0 -1555
0 0 2140 0 2140 920 0 920 0 0 -630z m637 -197 l-122 -123 -97 0 -98 0 0 348
1 347 219 -225 218 -225 -121 -122z m-582 -1548 c191 -196 346 -357 344 -358
-2 -2 -200 -83 -439 -180 l-435 -176 -93 92 c-70 70 -92 97 -88 112 10 40 351
865 357 865 4 0 163 -160 354 -355z"/>
</g>
</svg>
